<svg xmlns="http://www.w3.org/2000/svg" xmlns:xlink="http://www.w3.org/1999/xlink" version="1.1" id="Capa_1" x="0px" y="0px" width="100px" height="100px" viewBox="0 0 100 100" enable-background="new 0 0 100 100" xml:space="preserve">
<g id="Capa_2">
</g>
<g id="Capa_1_1_">
	<g>
		<path d="M48.746,19.49c4.632,0,8.396-3.763,8.396-8.397c0-4.636-3.763-8.392-8.396-8.392c-4.64,0-8.398,3.756-8.398,8.392    C40.348,15.728,44.105,19.49,48.746,19.49z"/>
		<path d="M58.996,52.78l-8.738,6.633l2.989,33.654c0.214,2.408,2.237,4.232,4.622,4.232c0.139,0,0.272-0.009,0.42-0.026    c2.552-0.216,4.442-2.478,4.214-5.03L58.996,52.78z"/>
		<path d="M35.747,92.241c-0.228,2.552,1.662,4.816,4.215,5.028c0.145,0.021,0.282,0.028,0.417,0.028    c2.384,0,4.408-1.825,4.624-4.233l2.99-33.654l-8.739-6.632L35.747,92.241z"/>
		<path d="M54.042,22.169l-5.305,0.066l-5.29-0.065c0,0,0.979,3.406,5.34,3.406C52.782,25.577,54.042,22.169,54.042,22.169z"/>
		<path d="M41.017,25.507v-3.25l-2.979-0.214c-1.894-0.016-3.5,1.246-3.999,2.977l-0.027-0.002L26.499,52.08    c-0.613,2.202,0.677,4.488,2.88,5.089c0.124,0.042,0.242,0.07,0.361,0.093c2.089,0.385,4.157-0.887,4.732-2.96l6.592-23.735    L41.017,25.507z"/>
		<path d="M71.357,52.078l-7.513-27.06l-0.025,0.001c-0.502-1.731-2.105-2.992-3.999-2.977l-2.979,0.214v3.25l-0.048,5.059    L63.386,54.3c0.575,2.073,2.645,3.347,4.731,2.96c0.118-0.021,0.236-0.051,0.361-0.093C70.682,56.566,71.971,54.28,71.357,52.078z    "/>
	</g>
</g>
</svg>